# xmcd
# 
# Track frame offsets:
#     150
#     19662
#     41340
#     60705
#     80965
#     105175
#     129857
#     148425
#     166562
#     197092
#     216322
# 
# Disc length: 3144
# 
# Revision: 1
# Processed by: cddbd v1.5.2PL0 Copyright (c) Steve Scherf et al.
# Submitted via: BonkEnc v1.0.8
# 
DISCID=930c460b
DTITLE=Eric Chang - White Cottage Love
DYEAR=2003
DGENRE=New Age
TTITLE0=On The Beach
TTITLE1=Jasmine Tea Happiness
TTITLE2=White Cottage Love
TTITLE3=Blossom Season
TTITLE4=Tangerine and Rosemary
TTITLE5=Elf in the Woods
TTITLE6=Cottage on the Mountain Top
TTITLE7=I Left My Heart at the Aegean Sea
TTITLE8=Orchid Fragrance in Midnight
TTITLE9=Forget-Me-Not
TTITLE10=Spring In Fall
EXTD=YEAR: 2003
EXTT0=
EXTT1=
EXTT2=
EXTT3=
EXTT4=
EXTT5=
EXTT6=
EXTT7=
EXTT8=
EXTT9=
EXTT10=
PLAYORDER=
